HIERARCHY
ROOT Hips
{
  OFFSET 0.000000 95.000000 0.000000
  CHANNELS 6 Xposition Yposition Zposition Zrotation Xrotation Yrotation
  JOINT Spine
  {
    OFFSET 0.000000 10.000000 0.000000
    CHANNELS 3 Zrotation Xrotation Yrotation
    JOINT Spine1
    {
      OFFSET 0.000000 12.000000 0.000000
      CHANNELS 3 Zrotation Xrotation Yrotation
      JOINT Spine2
      {
        OFFSET 0.000000 12.000000 0.000000
        CHANNELS 3 Zrotation Xrotation Yrotation
        JOINT Neck
        {
          OFFSET 0.000000 10.000000 0.000000
          CHANNELS 3 Zrotation Xrotation Yrotation
          JOINT Head
          {
            OFFSET 0.000000 8.000000 0.000000
            CHANNELS 3 Zrotation Xrotation Yrotation
            End Site
            {
              OFFSET 0.000000 10.000000 0.000000
            }
          }
        }
        JOINT LeftShoulder
        {
          OFFSET 6.000000 8.000000 0.000000
          CHANNELS 3 Zrotation Xrotation Yrotation
          JOINT LeftArm
          {
            OFFSET 12.000000 0.000000 0.000000
            CHANNELS 3 Zrotation Xrotation Yrotation
            JOINT LeftForeArm
            {
              OFFSET 24.000000 0.000000 0.000000
              CHANNELS 3 Zrotation Xrotation Yrotation
              JOINT LeftHand
              {
                OFFSET 22.000000 0.000000 0.000000
                CHANNELS 3 Zrotation Xrotation Yrotation
                JOINT LeftHandThumb1
                {
                  OFFSET 1.800000 -1.400000 0.500000
                  CHANNELS 3 Zrotation Xrotation Yrotation
                  JOINT LeftHandThumb2
                  {
                    OFFSET 2.400000 0.000000 0.000000
                    CHANNELS 3 Zrotation Xrotation Yrotation
                    JOINT LeftHandThumb3
                    {
                      OFFSET 1.900000 0.000000 0.000000
                      CHANNELS 3 Zrotation Xrotation Yrotation
                      End Site
                      {
                        OFFSET 1.600000 0.000000 0.000000
                      }
                    }
                  }
                }
                JOINT LeftHandIndex1
                {
                  OFFSET 6.600000 1.200000 0.300000
                  CHANNELS 3 Zrotation Xrotation Yrotation
                  JOINT LeftHandIndex2
                  {
                    OFFSET 2.000000 0.000000 0.000000
                    CHANNELS 3 Zrotation Xrotation Yrotation
                    JOINT LeftHandIndex3
                    {
                      OFFSET 1.200000 0.000000 0.000000
                      CHANNELS 3 Zrotation Xrotation Yrotation
                      End Site
                      {
                        OFFSET 1.000000 0.000000 0.000000
                      }
                    }
                  }
                }
                JOINT LeftHandMiddle1
                {
                  OFFSET 7.200000 0.000000 0.300000
                  CHANNELS 3 Zrotation Xrotation Yrotation
                  JOINT LeftHandMiddle2
                  {
                    OFFSET 3.000000 0.000000 0.000000
                    CHANNELS 3 Zrotation Xrotation Yrotation
                    JOINT LeftHandMiddle3
                    {
                      OFFSET 2.000000 0.000000 0.000000
                      CHANNELS 3 Zrotation Xrotation Yrotation
                      End Site
                      {
                        OFFSET 1.600000 0.000000 0.000000
                      }
                    }
                  }
                }
                JOINT LeftHandRing1
                {
                  OFFSET 7.100000 -1.000000 0.400000
                  CHANNELS 3 Zrotation Xrotation Yrotation
                  JOINT LeftHandRing2
                  {
                    OFFSET 2.600000 0.000000 0.000000
                    CHANNELS 3 Zrotation Xrotation Yrotation
                    JOINT LeftHandRing3
                    {
                      OFFSET 1.600000 0.000000 0.000000
                      CHANNELS 3 Zrotation Xrotation Yrotation
                      End Site
                      {
                        OFFSET 1.300000 0.000000 0.000000
                      }
                    }
                  }
                }
                JOINT LeftHandPinky1
                {
                  OFFSET 6.500000 -2.000000 0.500000
                  CHANNELS 3 Zrotation Xrotation Yrotation
                  JOINT LeftHandPinky2
                  {
                    OFFSET 1.900000 0.000000 0.000000
                    CHANNELS 3 Zrotation Xrotation Yrotation
                    JOINT LeftHandPinky3
                    {
                      OFFSET 1.400000 0.000000 0.000000
                      CHANNELS 3 Zrotation Xrotation Yrotation
                      End Site
                      {
                        OFFSET 1.300000 0.000000 0.000000
                      }
                    }
                  }
                }
              }
            }
          }
        }
        JOINT RightShoulder
        {
          OFFSET -6.000000 8.000000 0.000000
          CHANNELS 3 Zrotation Xrotation Yrotation
          JOINT RightArm
          {
            OFFSET -12.000000 0.000000 0.000000
            CHANNELS 3 Zrotation Xrotation Yrotation
            JOINT RightForeArm
            {
              OFFSET -24.000000 0.000000 0.000000
              CHANNELS 3 Zrotation Xrotation Yrotation
              JOINT RightHand
              {
                OFFSET -22.000000 0.000000 0.000000
                CHANNELS 3 Zrotation Xrotation Yrotation
                JOINT RightHandThumb1
                {
                  OFFSET -1.800000 -1.400000 0.500000
                  CHANNELS 3 Zrotation Xrotation Yrotation
                  JOINT RightHandThumb2
                  {
                    OFFSET -2.400000 0.000000 0.000000
                    CHANNELS 3 Zrotation Xrotation Yrotation
                    JOINT RightHandThumb3
                    {
                      OFFSET -1.900000 0.000000 0.000000
                      CHANNELS 3 Zrotation Xrotation Yrotation
                      End Site
                      {
                        OFFSET -1.600000 0.000000 0.000000
                      }
                    }
                  }
                }
                JOINT RightHandIndex1
                {
                  OFFSET -6.600000 1.200000 0.300000
                  CHANNELS 3 Zrotation Xrotation Yrotation
                  JOINT RightHandIndex2
                  {
                    OFFSET -2.000000 0.000000 0.000000
                    CHANNELS 3 Zrotation Xrotation Yrotation
                    JOINT RightHandIndex3
                    {
                      OFFSET -1.200000 0.000000 0.000000
                      CHANNELS 3 Zrotation Xrotation Yrotation
                      End Site
                      {
                        OFFSET -1.000000 0.000000 0.000000
                      }
                    }
                  }
                }
                JOINT RightHandMiddle1
                {
                  OFFSET -7.200000 0.000000 0.300000
                  CHANNELS 3 Zrotation Xrotation Yrotation
                  JOINT RightHandMiddle2
                  {
                    OFFSET -3.000000 0.000000 0.000000
                    CHANNELS 3 Zrotation Xrotation Yrotation
                    JOINT RightHandMiddle3
                    {
                      OFFSET -2.000000 0.000000 0.000000
                      CHANNELS 3 Zrotation Xrotation Yrotation
                      End Site
                      {
                        OFFSET -1.600000 0.000000 0.000000
                      }
                    }
                  }
                }
                JOINT RightHandRing1
                {
                  OFFSET -7.100000 -1.000000 0.400000
                  CHANNELS 3 Zrotation Xrotation Yrotation
                  JOINT RightHandRing2
                  {
                    OFFSET -2.600000 0.000000 0.000000
                    CHANNELS 3 Zrotation Xrotation Yrotation
                    JOINT RightHandRing3
                    {
                      OFFSET -1.600000 0.000000 0.000000
                      CHANNELS 3 Zrotation Xrotation Yrotation
                      End Site
                      {
                        OFFSET -1.300000 0.000000 0.000000
                      }
                    }
                  }
                }
                JOINT RightHandPinky1
                {
                  OFFSET -6.500000 -2.000000 0.500000
                  CHANNELS 3 Zrotation Xrotation Yrotation
                  JOINT RightHandPinky2
                  {
                    OFFSET -1.900000 0.000000 0.000000
                    CHANNELS 3 Zrotation Xrotation Yrotation
                    JOINT RightHandPinky3
                    {
                      OFFSET -1.400000 0.000000 0.000000
                      CHANNELS 3 Zrotation Xrotation Yrotation
                      End Site
                      {
                        OFFSET -1.300000 0.000000 0.000000
                      }
                    }
                  }
                }
              }
            }
          }
        }
      }
    }
  }
  JOINT LeftUpLeg
  {
    OFFSET 10.000000 -5.000000 0.000000
    CHANNELS 3 Zrotation Xrotation Yrotation
    JOINT LeftLeg
    {
      OFFSET 0.000000 -42.000000 0.000000
      CHANNELS 3 Zrotation Xrotation Yrotation
      JOINT LeftFoot
      {
        OFFSET 0.000000 -42.000000 4.000000
        CHANNELS 3 Zrotation Xrotation Yrotation
        End Site
        {
          OFFSET 0.000000 0.000000 12.000000
        }
      }
    }
  }
  JOINT RightUpLeg
  {
    OFFSET -10.000000 -5.000000 0.000000
    CHANNELS 3 Zrotation Xrotation Yrotation
    JOINT RightLeg
    {
      OFFSET 0.000000 -42.000000 0.000000
      CHANNELS 3 Zrotation Xrotation Yrotation
      JOINT RightFoot
      {
        OFFSET 0.000000 -42.000000 4.000000
        CHANNELS 3 Zrotation Xrotation Yrotation
        End Site
        {
          OFFSET 0.000000 0.000000 12.000000
        }
      }
    }
  }
}
MOTION
Frames: 5
Frame Time: 0.033333
0.0000 95.0000 0.0000 0.0000 0.0000 0.0000 0.0000 0.0000 0.0000 0.0000 0.0000 0.0000 0.0000 0.0000 0.0000 0.0000 0.0000 0.0000 0.0000 0.0000 0.0000 0.0000 0.0000 0.0000 -78.6282 0.4399 0.5372 -10.3205 -2.7576 4.1736 143.0771 20.6545 2.0808 61.7455 -12.4130 5.1634 20.9193 0.0000 0.0000 2.3519 0.0000 0.0000 -9.0274 0.8822 -4.7149 56.1458 0.0000 0.0000 65.0933 0.0000 0.0000 -4.2683 -3.8456 -88.8019 62.5354 0.0000 0.0000 14.3824 0.0000 0.0000 21.9401 4.7388 -93.0433 68.0343 0.0000 0.0000 12.6938 0.0000 0.0000 36.4220 -0.2074 -94.7883 64.9496 0.0000 0.0000 16.0940 0.0000 0.0000 0.0000 0.0000 0.0000 84.3472 -6.4294 7.0956 -2.0879 8.0136 8.1455 179.6927 7.8806 -31.3299 -63.6501 -13.9350 8.1745 17.0507 0.0000 0.0000 18.6450 0.0000 0.0000 10.4756 0.3227 -1.6597 3.5788 0.0000 0.0000 3.7835 0.0000 0.0000 -23.3766 11.8431 58.0266 86.0701 0.0000 0.0000 7.4234 0.0000 0.0000 -37.4903 16.7222 84.6058 66.4297 0.0000 0.0000 17.9216 0.0000 0.0000 -49.3035 11.9858 94.5866 54.9778 0.0000 0.0000 20.2078 0.0000 0.0000 0.0000 0.0000 0.0000 0.0000 0.0000 0.0000 0.0000 0.0000 0.0000 0.0000 0.0000 0.0000 0.0000 0.0000 0.0000 0.0000 0.0000 0.0000
0.0000 95.0000 0.0000 0.0000 0.0000 0.0000 0.0000 0.0000 0.0000 0.0000 0.0000 0.0000 0.0000 0.0000 0.0000 0.0000 0.0000 0.0000 0.0000 0.0000 0.0000 0.0000 0.0000 0.0000 -78.7763 0.5140 0.6261 -10.2496 -2.6578 4.0277 143.1663 20.6054 2.1532 61.7455 -12.4130 5.1634 20.9193 0.0000 0.0000 2.3519 0.0000 0.0000 -9.0274 0.8822 -4.7149 56.1458 0.0000 0.0000 65.0933 0.0000 0.0000 -4.2683 -3.8456 -88.8019 62.5354 0.0000 0.0000 14.3824 0.0000 0.0000 21.9401 4.7388 -93.0433 68.0343 0.0000 0.0000 12.6938 0.0000 0.0000 36.4220 -0.2074 -94.7883 64.9496 0.0000 0.0000 16.0940 0.0000 0.0000 0.0000 0.0000 0.0000 84.3672 -6.3973 7.0577 -2.1687 8.2916 8.4120 179.9040 7.7354 -31.5401 -63.6501 -13.9350 8.1745 17.0507 0.0000 0.0000 18.6450 0.0000 0.0000 10.4756 0.3227 -1.6597 3.5788 0.0000 0.0000 3.7835 0.0000 0.0000 -23.3766 11.8431 58.0266 86.0701 0.0000 0.0000 7.4234 0.0000 0.0000 -37.4903 16.7222 84.6058 66.4297 0.0000 0.0000 17.9216 0.0000 0.0000 -49.3035 11.9858 94.5866 54.9778 0.0000 0.0000 20.2078 0.0000 0.0000 0.0000 0.0000 0.0000 0.0000 0.0000 0.0000 0.0000 0.0000 0.0000 0.0000 0.0000 0.0000 0.0000 0.0000 0.0000 0.0000 0.0000 0.0000
0.0000 95.0000 0.0000 0.0000 0.0000 0.0000 0.0000 0.0000 0.0000 0.0000 0.0000 0.0000 0.0000 0.0000 0.0000 0.0000 0.0000 0.0000 0.0000 0.0000 0.0000 0.0000 0.0000 0.0000 -78.8311 0.6477 0.7881 -10.1759 -2.6501 4.0385 143.1549 20.7562 1.9971 61.7455 -12.4130 5.1634 20.9193 0.0000 0.0000 2.3519 0.0000 0.0000 -9.0274 0.8822 -4.7149 56.1458 0.0000 0.0000 65.0933 0.0000 0.0000 -4.2683 -3.8456 -88.8019 62.5354 0.0000 0.0000 14.3824 0.0000 0.0000 21.9401 4.7388 -93.0433 68.0343 0.0000 0.0000 12.6938 0.0000 0.0000 36.4220 -0.2074 -94.7883 64.9496 0.0000 0.0000 16.0940 0.0000 0.0000 0.0000 0.0000 0.0000 84.3846 -6.3783 7.0346 -2.1843 8.2780 8.3926 179.8841 7.7644 -31.5029 -63.6501 -13.9350 8.1745 17.0507 0.0000 0.0000 18.6450 0.0000 0.0000 10.4756 0.3227 -1.6597 3.5788 0.0000 0.0000 3.7835 0.0000 0.0000 -23.3766 11.8431 58.0266 86.0701 0.0000 0.0000 7.4234 0.0000 0.0000 -37.4903 16.7222 84.6058 66.4297 0.0000 0.0000 17.9216 0.0000 0.0000 -49.3035 11.9858 94.5866 54.9778 0.0000 0.0000 20.2078 0.0000 0.0000 0.0000 0.0000 0.0000 0.0000 0.0000 0.0000 0.0000 0.0000 0.0000 0.0000 0.0000 0.0000 0.0000 0.0000 0.0000 0.0000 0.0000 0.0000
0.0000 95.0000 0.0000 0.0000 0.0000 0.0000 0.0000 0.0000 0.0000 0.0000 0.0000 0.0000 0.0000 0.0000 0.0000 0.0000 0.0000 0.0000 0.0000 0.0000 0.0000 0.0000 0.0000 0.0000 -78.8177 0.6873 0.8364 -10.2159 -2.5690 3.9342 143.1877 20.7052 2.0573 61.7455 -12.4130 5.1634 20.9193 0.0000 0.0000 2.3519 0.0000 0.0000 -9.0274 0.8822 -4.7149 56.1458 0.0000 0.0000 65.0933 0.0000 0.0000 -4.2683 -3.8456 -88.8019 62.5354 0.0000 0.0000 14.3824 0.0000 0.0000 21.9401 4.7388 -93.0433 68.0343 0.0000 0.0000 12.6938 0.0000 0.0000 36.4220 -0.2074 -94.7883 64.9496 0.0000 0.0000 16.0940 0.0000 0.0000 0.0000 0.0000 0.0000 84.2757 -6.2883 6.9486 -1.8966 8.3522 8.5686 179.7630 7.6741 -31.5783 -63.6501 -13.9350 8.1745 17.0507 0.0000 0.0000 18.6450 0.0000 0.0000 10.4756 0.3227 -1.6597 3.5788 0.0000 0.0000 3.7835 0.0000 0.0000 -23.3766 11.8431 58.0266 86.0701 0.0000 0.0000 7.4234 0.0000 0.0000 -37.4903 16.7222 84.6058 66.4297 0.0000 0.0000 17.9216 0.0000 0.0000 -49.3035 11.9858 94.5866 54.9778 0.0000 0.0000 20.2078 0.0000 0.0000 0.0000 0.0000 0.0000 0.0000 0.0000 0.0000 0.0000 0.0000 0.0000 0.0000 0.0000 0.0000 0.0000 0.0000 0.0000 0.0000 0.0000 0.0000
0.0000 95.0000 0.0000 0.0000 0.0000 0.0000 0.0000 0.0000 0.0000 0.0000 0.0000 0.0000 0.0000 0.0000 0.0000 0.0000 0.0000 0.0000 0.0000 0.0000 0.0000 0.0000 0.0000 0.0000 -78.7930 0.6623 0.8064 -10.2818 -2.5645 3.9291 143.2301 20.6702 2.1034 61.7455 -12.4130 5.1634 20.9193 0.0000 0.0000 2.3519 0.0000 0.0000 -9.0274 0.8822 -4.7149 56.1458 0.0000 0.0000 65.0933 0.0000 0.0000 -4.2683 -3.8456 -88.8019 62.5354 0.0000 0.0000 14.3824 0.0000 0.0000 21.9401 4.7388 -93.0433 68.0343 0.0000 0.0000 12.6938 0.0000 0.0000 36.4220 -0.2074 -94.7883 64.9496 0.0000 0.0000 16.0940 0.0000 0.0000 0.0000 0.0000 0.0000 83.9091 -6.2577 6.9594 -1.0610 8.3104 8.8068 179.3889 7.4182 -31.7828 -63.6501 -13.9350 8.1745 17.0507 0.0000 0.0000 18.6450 0.0000 0.0000 10.4756 0.3227 -1.6597 3.5788 0.0000 0.0000 3.7835 0.0000 0.0000 -23.3766 11.8431 58.0266 86.0701 0.0000 0.0000 7.4234 0.0000 0.0000 -37.4903 16.7222 84.6058 66.4297 0.0000 0.0000 17.9216 0.0000 0.0000 -49.3035 11.9858 94.5866 54.9778 0.0000 0.0000 20.2078 0.0000 0.0000 0.0000 0.0000 0.0000 0.0000 0.0000 0.0000 0.0000 0.0000 0.0000 0.0000 0.0000 0.0000 0.0000 0.0000 0.0000 0.0000 0.0000 0.0000
